<svg width="345" height="83" viewBox="0 0 345 83" fill="none" xmlns="http://www.w3.org/2000/svg">
<path d="M74.365 21.4207L65.8762 46.2107H82.9891L74.6694 21.4207H74.365ZM94.7246 55.2406C95.0853 56.1876 95.4235 56.9993 95.7392 57.6757C96.0774 58.3295 96.4156 58.9157 96.7538 59.4343C97.2724 59.5696 97.7909 59.6598 98.3095 59.7049C98.8506 59.7274 99.4143 59.7387 100.001 59.7387H101.489L102.469 64.4735C100.959 64.248 99.527 64.1127 98.1742 64.0676C96.844 64.0225 95.5475 64 94.2849 64C93.3605 64 92.4699 64 91.6132 64C90.7789 64.0225 89.956 64.0451 89.1443 64.0676C88.3326 64.1127 87.5209 64.1578 86.7093 64.2029C85.8976 64.2706 85.0634 64.3607 84.2066 64.4735L83.564 59.7387H84.1389C84.7928 59.7387 85.4016 59.7274 85.9652 59.7049C86.5289 59.6823 87.0362 59.5921 87.4871 59.4343C87.4646 58.9157 87.3744 58.3182 87.2166 57.6418C87.0813 56.9654 86.8445 56.1989 86.5063 55.3421L84.2742 49.6942H64.7601L62.9338 55.2406C62.6633 56.0523 62.4603 56.7625 62.3251 57.3713C62.2123 57.9575 62.156 58.5099 62.156 59.0285C62.156 59.2088 62.2349 59.3441 62.3927 59.4343C62.5505 59.5245 62.7422 59.5921 62.9676 59.6372C63.2157 59.6823 63.4749 59.7161 63.7455 59.7387C64.0386 59.7387 64.3204 59.7387 64.591 59.7387H66.1467L65.8423 64.4735C64.5797 64.248 63.3509 64.1127 62.156 64.0676C60.9835 64.0225 59.8224 64 58.6725 64C56.959 64 55.3469 64.0225 53.8363 64.0676C52.3256 64.1127 50.7135 64.248 49 64.4735L50.0146 59.7387H51.5703C52.1791 59.7387 52.7427 59.7274 53.2613 59.7049C53.8024 59.6823 54.321 59.5921 54.817 59.4343C55.2003 58.9157 55.5611 58.3182 55.8993 57.6418C56.2375 56.9654 56.5644 56.1989 56.8801 55.3421C57.1506 54.5981 57.579 53.4594 58.1652 51.9263C58.7514 50.3931 59.4391 48.6232 60.2282 46.6165C61.0174 44.5873 61.8629 42.4116 62.7647 40.0893C63.6891 37.767 64.6135 35.4447 65.538 33.1224L72.5725 15.4007H75.684C76.6985 15.4007 77.499 15.4458 78.0852 15.536C78.6939 15.6262 79.2689 15.7615 79.81 15.9418L94.7246 55.2406ZM116.084 37.2484C116.918 35.9182 117.741 34.6894 118.553 33.562C119.364 32.4347 120.233 31.4652 121.157 30.6535C122.104 29.8418 123.141 29.2105 124.268 28.7596C125.396 28.3087 126.692 28.0832 128.158 28.0832C129.556 28.0832 130.615 28.1959 131.337 28.4214C132.058 28.6469 132.611 28.8723 132.994 29.0978L132.148 38.4321H129.105L128.293 33.4944C127.684 33.4268 127.211 33.3704 126.872 33.3253C126.534 33.2802 126.241 33.2577 125.993 33.2577C124.933 33.2577 123.829 33.5846 122.679 34.2384C121.551 34.8697 120.514 35.7265 119.567 36.8088C118.62 37.8684 117.843 39.0972 117.234 40.4951C116.625 41.8705 116.321 43.3022 116.321 44.7903V56.1876C116.321 57.1345 116.343 57.9237 116.388 58.555C116.433 59.1637 116.58 59.671 116.828 60.0769C117.099 60.4827 117.504 60.7984 118.045 61.0238C118.609 61.2493 119.398 61.441 120.413 61.5988L120.717 64.4397C119.094 64.3044 117.617 64.1916 116.287 64.1015C114.957 64.0338 113.649 64 112.364 64C111.146 64 109.917 64.0338 108.677 64.1015C107.46 64.1691 106.163 64.2818 104.788 64.4397L104.923 61.5988C105.983 61.4635 106.795 61.3057 107.358 61.1253C107.945 60.9449 108.362 60.6856 108.61 60.3474C108.88 60.0092 109.038 59.5809 109.083 59.0623C109.128 58.5437 109.151 57.8786 109.151 57.0669V35.1854C109.151 34.7796 109.128 34.385 109.083 34.0017C109.061 33.5959 108.993 33.2126 108.88 32.8518C108.565 32.694 108.226 32.57 107.866 32.4798C107.505 32.3896 107.065 32.3445 106.547 32.3445H102.725V29.0978C102.996 29.0302 103.401 28.9625 103.943 28.8949C104.484 28.8047 105.104 28.7258 105.803 28.6581C106.524 28.5905 107.291 28.5341 108.102 28.489C108.937 28.4439 109.782 28.4214 110.639 28.4214C111.721 28.4214 112.736 28.4778 113.683 28.5905C114.652 28.6807 115.453 28.8498 116.084 29.0978V37.2484ZM165.852 62.1737C164.364 63.053 162.571 63.7069 160.475 64.1353C158.4 64.5862 156.202 64.8117 153.88 64.8117C151.242 64.8117 148.818 64.4171 146.608 63.628C144.399 62.8388 142.482 61.689 140.859 60.1783C139.258 58.6452 138.007 56.7738 137.105 54.5642C136.226 52.3321 135.786 49.7843 135.786 46.9209C135.786 43.9222 136.26 41.2504 137.207 38.9056C138.153 36.5607 139.45 34.5992 141.096 33.0209C142.764 31.4201 144.726 30.2026 146.98 29.3684C149.258 28.5341 151.727 28.117 154.387 28.117C155.537 28.117 156.653 28.1959 157.735 28.3538C158.84 28.489 159.877 28.7032 160.847 28.9963C161.839 29.2669 162.752 29.6051 163.586 30.0109C164.42 30.3942 165.142 30.8339 165.751 31.3299L165.176 38.1277H162.741C161.658 36.0083 160.396 34.4526 158.953 33.4606C157.532 32.4685 155.774 31.9725 153.677 31.9725C152.144 31.9725 150.735 32.2994 149.449 32.9533C148.164 33.5846 147.059 34.4752 146.135 35.6251C145.211 36.7749 144.489 38.1615 143.971 39.7849C143.452 41.3857 143.193 43.1444 143.193 45.0608C143.193 47.789 143.497 50.1338 144.106 52.0954C144.715 54.0569 145.538 55.669 146.575 56.9316C147.634 58.1717 148.852 59.0961 150.227 59.7049C151.625 60.2911 153.113 60.5842 154.691 60.5842C156.811 60.5842 158.727 60.3587 160.441 59.9078C162.177 59.4343 163.823 58.7241 165.379 57.7771L165.852 62.1737ZM210.615 63.5942C209.533 63.8873 208.191 64.1015 206.59 64.2367C205.012 64.372 203.377 64.4397 201.686 64.4397C201.19 64.4397 200.683 64.3946 200.164 64.3044C199.668 64.2367 199.217 64.1015 198.812 63.8985C198.406 63.6731 198.068 63.38 197.797 63.0192C197.549 62.6359 197.425 62.1399 197.425 61.5311C197.425 60.4264 197.459 59.3328 197.526 58.2506C197.594 57.1684 197.628 55.917 197.628 54.4966V42.2199C197.628 40.0329 197.504 38.2743 197.256 36.944C197.03 35.5912 196.681 34.5541 196.207 33.8326C195.734 33.0886 195.137 32.6038 194.415 32.3783C193.694 32.1303 192.848 32.0063 191.879 32.0063C190.593 32.0063 189.342 32.2205 188.125 32.6489C186.907 33.0547 185.813 33.5959 184.844 34.2723C183.897 34.9261 183.108 35.6476 182.477 36.4367C181.868 37.2259 181.518 37.9924 181.428 38.7365V56.3567C181.428 57.2811 181.451 58.0477 181.496 58.6564C181.563 59.2427 181.721 59.7387 181.969 60.1445C182.24 60.5278 182.646 60.8322 183.187 61.0577C183.728 61.2606 184.494 61.441 185.487 61.5988L185.757 64.4397C184.134 64.3044 182.657 64.1916 181.327 64.1015C179.996 64.0338 178.689 64 177.404 64C176.186 64 174.957 64.0338 173.717 64.1015C172.5 64.1691 171.215 64.2818 169.862 64.4397L169.997 61.5988C171.034 61.4635 171.835 61.3057 172.398 61.1253C172.962 60.9449 173.379 60.6969 173.65 60.3813C173.92 60.0431 174.078 59.626 174.123 59.1299C174.168 58.6114 174.191 57.98 174.191 57.236V18.2416C174.191 17.723 174.168 17.2157 174.123 16.7197C174.1 16.2011 174.033 15.7164 173.92 15.2654C173.537 15.1302 173.108 15.0174 172.635 14.9272C172.161 14.837 171.632 14.792 171.045 14.792H167.731V11.8496C168.836 11.5791 170.324 11.3536 172.195 11.1732C174.067 10.9928 176.164 10.9027 178.486 10.9027C179.23 10.9027 179.794 10.9478 180.177 11.0379C180.583 11.1056 180.876 11.2521 181.056 11.4776C181.237 11.7031 181.338 12.03 181.361 12.4584C181.406 12.8868 181.428 13.4392 181.428 14.1156V32.9533C183.074 31.3976 185.036 30.2026 187.313 29.3684C189.59 28.5341 191.957 28.117 194.415 28.117C198.068 28.117 200.717 28.9963 202.363 30.755C204.031 32.4911 204.865 35.1741 204.865 38.8041V54.9024C204.865 56.1876 204.922 57.2924 205.034 58.2168C205.147 59.1187 205.282 59.9078 205.44 60.5842H210.615V63.5942ZM217.161 16.4153C217.161 14.9723 217.589 13.8224 218.446 12.9657C219.325 12.1089 220.442 11.6805 221.794 11.6805C222.471 11.6805 223.091 11.7933 223.654 12.0187C224.218 12.2442 224.703 12.5598 225.109 12.9657C225.514 13.3715 225.83 13.8675 226.056 14.4538C226.304 15.04 226.428 15.6938 226.428 16.4153C226.428 17.0917 226.304 17.723 226.056 18.3092C225.83 18.8729 225.514 19.3689 225.109 19.7973C224.703 20.2031 224.218 20.5188 223.654 20.7443C223.091 20.9697 222.471 21.0825 221.794 21.0825C221.118 21.0825 220.498 20.9697 219.934 20.7443C219.371 20.5188 218.875 20.2031 218.446 19.7973C218.04 19.3689 217.725 18.8729 217.499 18.3092C217.274 17.723 217.161 17.0917 217.161 16.4153ZM231.23 63.628C230.058 63.9211 228.727 64.124 227.239 64.2367C225.751 64.372 224.094 64.4397 222.268 64.4397C221.772 64.4397 221.264 64.3946 220.746 64.3044C220.25 64.2367 219.799 64.1015 219.393 63.8985C218.987 63.6731 218.649 63.38 218.378 63.0192C218.13 62.6359 218.006 62.1399 218.006 61.5311C218.006 60.4264 218.04 59.3328 218.108 58.2506C218.198 57.1684 218.243 55.917 218.243 54.4966V35.5236C218.243 35.0727 218.221 34.6105 218.176 34.137C218.153 33.6635 218.097 33.2351 218.006 32.8518C217.195 32.5136 216.225 32.3445 215.098 32.3445H211.817V29.0978C212.088 29.0302 212.505 28.9625 213.069 28.8949C213.655 28.8047 214.309 28.7258 215.03 28.6581C215.774 28.5905 216.575 28.5341 217.432 28.489C218.288 28.4439 219.145 28.4214 220.002 28.4214C221.084 28.4214 222.099 28.4778 223.046 28.5905C224.015 28.6807 224.816 28.8498 225.447 29.0978V54.9024C225.447 56.1876 225.503 57.2924 225.616 58.2168C225.729 59.1187 225.864 59.9078 226.022 60.5842H230.892L231.23 63.628ZM262.702 35.7603C262.904 35.2418 263.074 34.7457 263.209 34.2723C263.344 33.7762 263.479 33.3027 263.615 32.8518C263.299 32.6714 262.927 32.5474 262.499 32.4798C262.093 32.3896 261.574 32.3445 260.943 32.3445H259.083L259.455 29.0978C260.334 28.8498 261.405 28.6807 262.668 28.5905C263.953 28.4778 265.407 28.4214 267.031 28.4214C268.676 28.4214 270.142 28.4778 271.427 28.5905C272.712 28.6807 273.716 28.8498 274.437 29.0978V32.3445H272.611C271.483 32.3445 270.446 32.5136 269.499 32.8518C269.184 33.2802 268.755 34.0693 268.214 35.2192C267.673 36.3691 267.064 37.7219 266.388 39.2776C265.712 40.8333 265.001 42.5243 264.257 44.3506C263.513 46.1543 262.78 47.9355 262.059 49.6942C261.338 51.4302 260.65 53.0649 259.996 54.5981C259.365 56.1312 258.824 57.3938 258.373 58.3859L255.701 64.2706H251.913C251.552 64.2706 251.237 64.2593 250.966 64.2367C250.718 64.2367 250.481 64.2029 250.256 64.1353C250.03 64.0902 249.816 64.0113 249.613 63.8985C249.433 63.7633 249.241 63.5716 249.038 63.3236L237.404 35.7603C237.179 35.2418 236.931 34.7457 236.66 34.2723C236.412 33.7762 236.13 33.3027 235.815 32.8518C235.341 32.6714 234.856 32.5474 234.36 32.4798C233.864 32.3896 233.312 32.3445 232.703 32.3445H230.843L230.302 29.0978C231.091 28.8498 232.162 28.6807 233.515 28.5905C234.868 28.4778 236.457 28.4214 238.284 28.4214C240.335 28.4214 242.207 28.4778 243.898 28.5905C245.611 28.6807 247.02 28.8498 248.125 29.0978L248.7 32.3445H246.84C245.668 32.3445 244.766 32.5136 244.134 32.8518C244.225 33.3027 244.371 33.7762 244.574 34.2723C244.8 34.7457 245.002 35.2418 245.183 35.7603C246.919 40.6079 248.52 44.9143 249.985 48.6796C251.451 52.4223 252.804 55.7592 254.044 58.6903L262.702 35.7603ZM301.377 43.5727C301.422 43.4826 301.444 43.3924 301.444 43.3022C301.444 43.212 301.444 43.1105 301.444 42.9978C301.444 41.5097 301.287 40.1006 300.971 38.7703C300.678 37.4175 300.204 36.2338 299.55 35.2192C298.897 34.1821 298.04 33.3704 296.98 32.7842C295.943 32.1754 294.669 31.871 293.158 31.871C290.16 31.871 287.883 32.8631 286.327 34.8472C284.794 36.8313 283.926 39.7398 283.723 43.5727H301.377ZM307.972 58.3521C306.686 60.6067 304.917 62.2526 302.662 63.2898C300.407 64.3044 297.668 64.8117 294.444 64.8117C291.715 64.8117 289.235 64.4058 287.003 63.5942C284.794 62.7825 282.9 61.5988 281.321 60.0431C279.766 58.4648 278.56 56.5371 277.703 54.2599C276.846 51.9826 276.418 49.3785 276.418 46.4474C276.418 43.6066 276.835 41.0588 277.669 38.8041C278.503 36.5269 279.698 34.5992 281.254 33.0209C282.81 31.4426 284.681 30.2364 286.868 29.4022C289.078 28.5454 291.558 28.117 294.308 28.117C296.338 28.117 298.231 28.4327 299.99 29.064C301.749 29.6727 303.271 30.5633 304.556 31.7358C305.864 32.8856 306.878 34.3061 307.6 35.9971C308.344 37.6881 308.716 39.5933 308.716 41.7126C308.716 42.9978 308.603 44.0237 308.377 44.7903C308.175 45.5568 307.859 46.1431 307.431 46.5489C307.025 46.9547 306.495 47.2253 305.841 47.3606C305.21 47.4733 304.454 47.5297 303.575 47.5297H283.757C284.005 51.8812 285.154 55.1504 287.206 57.3375C289.28 59.5019 292.065 60.5842 295.56 60.5842C297.386 60.5842 299.088 60.3024 300.667 59.7387C302.245 59.175 303.71 58.2844 305.063 57.0669L307.972 58.3521ZM318.441 53.0085C318.554 54.3613 318.655 55.5563 318.745 56.5934C318.836 57.608 318.937 58.5888 319.05 59.5358C320.064 60.0543 321.225 60.4376 322.533 60.6856C323.863 60.9337 325.509 61.0577 327.471 61.0577C328.688 61.0577 329.737 60.9224 330.616 60.6518C331.495 60.3587 332.217 59.9642 332.781 59.4681C333.344 58.9721 333.761 58.4084 334.032 57.7771C334.303 57.1458 334.438 56.4694 334.438 55.7479C334.438 55.049 334.28 54.4177 333.964 53.854C333.649 53.2903 333.198 52.7718 332.612 52.2983C332.048 51.8248 331.36 51.3964 330.548 51.0131C329.737 50.6073 328.835 50.2127 327.843 49.8294L324.934 48.7134C323.131 48.0144 321.552 47.3493 320.2 46.718C318.847 46.0867 317.719 45.3877 316.818 44.6212C315.916 43.832 315.239 42.9302 314.788 41.9156C314.337 40.901 314.112 39.6609 314.112 38.1954C314.112 36.6622 314.439 35.2756 315.093 34.0355C315.747 32.7729 316.694 31.7019 317.934 30.8226C319.174 29.9433 320.696 29.2669 322.499 28.7934C324.326 28.3199 326.389 28.0832 328.688 28.0832C331.078 28.0832 333.153 28.2974 334.911 28.7258C336.692 29.1316 338.068 29.6502 339.037 30.2815C339.037 30.5521 338.992 30.9804 338.902 31.5667C338.812 32.1303 338.688 32.7954 338.53 33.562C338.395 34.3061 338.237 35.1178 338.057 35.9971C337.899 36.8764 337.741 37.7557 337.583 38.635L334.201 38.0601C334.156 37.0455 334.111 36.1211 334.066 35.2869C334.021 34.4526 333.976 33.7537 333.93 33.19C332.984 32.6714 331.935 32.3445 330.785 32.2092C329.635 32.074 328.305 32.0063 326.794 32.0063C324.607 32.0063 323.007 32.4234 321.992 33.2577C320.977 34.0919 320.47 35.2305 320.47 36.6735C320.47 37.5302 320.651 38.2743 321.011 38.9056C321.372 39.5369 321.857 40.0893 322.466 40.5628C323.097 41.0362 323.83 41.4646 324.664 41.8479C325.521 42.2087 326.434 42.5581 327.403 42.8963L330.853 44.1139C332.634 44.7452 334.179 45.399 335.486 46.0754C336.794 46.7293 337.876 47.4508 338.733 48.2399C339.59 49.029 340.221 49.8971 340.627 50.844C341.055 51.791 341.269 52.8394 341.269 53.9893C341.269 55.8156 340.909 57.4051 340.187 58.7579C339.466 60.1107 338.462 61.238 337.177 62.1399C335.892 63.0192 334.359 63.6843 332.578 64.1353C330.819 64.5862 328.903 64.8117 326.828 64.8117C325.476 64.8117 324.111 64.7102 322.736 64.5073C321.383 64.3044 320.098 64.0451 318.881 63.7294C317.686 63.3912 316.592 63.0192 315.6 62.6134C314.631 62.185 313.853 61.7679 313.266 61.362L314.924 52.5689L318.441 53.0085Z" fill="#2F261E"/>
<mask id="path-2-outside-1_186_2128" maskUnits="userSpaceOnUse" x="21" y="15" width="35" height="51" fill="black">
<rect fill="white" x="21" y="15" width="35" height="51"/>
<path d="M44.1375 18.9856C44.2953 18.6474 44.4644 18.3092 44.6448 17.971C44.8251 17.6328 45.0506 17.3397 45.3212 17.0917C45.5917 16.8437 45.9187 16.6408 46.302 16.483C46.7078 16.3251 47.2038 16.2462 47.79 16.2462H53.6409L32.3343 62.3766C31.951 63.1883 31.4888 63.7858 30.9477 64.1691C30.4291 64.5524 29.7076 64.744 28.7832 64.744H23L44.1375 18.9856Z"/>
</mask>
<path d="M44.1375 18.9856C44.2953 18.6474 44.4644 18.3092 44.6448 17.971C44.8251 17.6328 45.0506 17.3397 45.3212 17.0917C45.5917 16.8437 45.9187 16.6408 46.302 16.483C46.7078 16.3251 47.2038 16.2462 47.79 16.2462H53.6409L32.3343 62.3766C31.951 63.1883 31.4888 63.7858 30.9477 64.1691C30.4291 64.5524 29.7076 64.744 28.7832 64.744H23L44.1375 18.9856Z" fill="#2F261E"/>
<path d="M44.1375 18.9856L43.2313 18.5627L43.2297 18.5663L44.1375 18.9856ZM46.302 16.483L45.9395 15.5509L45.9303 15.5545L45.9212 15.5583L46.302 16.483ZM53.6409 16.2462L54.5487 16.6655L55.2043 15.2462H53.6409V16.2462ZM32.3343 62.3766L33.2386 62.8037L33.2422 62.796L32.3343 62.3766ZM30.9477 64.1691L30.3697 63.3531L30.3614 63.3589L30.3533 63.3649L30.9477 64.1691ZM23 64.744L22.0922 64.3247L21.4365 65.744H23V64.744ZM45.0437 19.4085C45.1938 19.0869 45.3549 18.7646 45.5271 18.4416L43.7624 17.5004C43.5739 17.8539 43.3968 18.208 43.2313 18.5627L45.0437 19.4085ZM45.5271 18.4416C45.6566 18.1989 45.8135 17.997 45.9969 17.8289L44.6455 16.3546C44.2878 16.6824 43.9937 17.0668 43.7624 17.5004L45.5271 18.4416ZM45.9969 17.8289C46.1705 17.6698 46.3941 17.5265 46.6827 17.4076L45.9212 15.5583C45.4433 15.7551 45.013 16.0176 44.6455 16.3546L45.9969 17.8289ZM46.6644 17.415C46.9223 17.3147 47.2875 17.2462 47.79 17.2462V15.2462C47.1201 15.2462 46.4933 15.3356 45.9395 15.5509L46.6644 17.415ZM47.79 17.2462H53.6409V15.2462H47.79V17.2462ZM52.733 15.8269L31.4265 61.9573L33.2422 62.796L54.5487 16.6655L52.733 15.8269ZM31.4301 61.9496C31.0953 62.6585 30.7294 63.0983 30.3697 63.3531L31.5257 64.9851C32.2482 64.4733 32.8067 63.7181 33.2386 62.8036L31.4301 61.9496ZM30.3533 63.3649C30.0671 63.5765 29.5832 63.744 28.7832 63.744V65.744C29.832 65.744 30.7912 65.5283 31.5421 64.9733L30.3533 63.3649ZM28.7832 63.744H23V65.744H28.7832V63.744ZM23.9078 65.1634L45.0453 19.405L43.2297 18.5663L22.0922 64.3247L23.9078 65.1634Z" fill="#2F261E" mask="url(#path-2-outside-1_186_2128)"/>
<mask id="path-4-outside-2_186_2128" maskUnits="userSpaceOnUse" x="3" y="50" width="17" height="16" fill="black">
<rect fill="white" x="3" y="50" width="17" height="16"/>
<path d="M18.3642 58.2844C18.3642 59.2765 18.2064 60.1783 17.8908 60.99C17.5751 61.7792 17.1129 62.4556 16.5041 63.0192C15.9179 63.5603 15.2077 63.9775 14.3735 64.2706C13.5393 64.5862 12.6148 64.744 11.6002 64.744C10.5856 64.744 9.66124 64.5862 8.82701 64.2706C7.99278 63.9775 7.27129 63.5603 6.66253 63.0192C6.07632 62.4556 5.62539 61.7792 5.30973 60.99C4.99408 60.1783 4.83625 59.2765 4.83625 58.2844C4.83625 57.3375 5.00535 56.4694 5.34355 55.6803C5.68175 54.8912 6.15523 54.226 6.76399 53.6849C7.37275 53.1212 8.08297 52.6929 8.89465 52.3998C9.72888 52.0841 10.6307 51.9263 11.6002 51.9263C12.5698 51.9263 13.4716 52.0954 14.3058 52.4336C15.1401 52.7492 15.8503 53.1889 16.4365 53.7526C17.0453 54.3162 17.5187 54.9926 17.8569 55.7817C18.1951 56.5483 18.3642 57.3826 18.3642 58.2844Z"/>
</mask>
<path d="M18.3642 58.2844C18.3642 59.2765 18.2064 60.1783 17.8908 60.99C17.5751 61.7792 17.1129 62.4556 16.5041 63.0192C15.9179 63.5603 15.2077 63.9775 14.3735 64.2706C13.5393 64.5862 12.6148 64.744 11.6002 64.744C10.5856 64.744 9.66124 64.5862 8.82701 64.2706C7.99278 63.9775 7.27129 63.5603 6.66253 63.0192C6.07632 62.4556 5.62539 61.7792 5.30973 60.99C4.99408 60.1783 4.83625 59.2765 4.83625 58.2844C4.83625 57.3375 5.00535 56.4694 5.34355 55.6803C5.68175 54.8912 6.15523 54.226 6.76399 53.6849C7.37275 53.1212 8.08297 52.6929 8.89465 52.3998C9.72888 52.0841 10.6307 51.9263 11.6002 51.9263C12.5698 51.9263 13.4716 52.0954 14.3058 52.4336C15.1401 52.7492 15.8503 53.1889 16.4365 53.7526C17.0453 54.3162 17.5187 54.9926 17.8569 55.7817C18.1951 56.5483 18.3642 57.3826 18.3642 58.2844Z" fill="#E55055"/>
<path d="M17.8908 60.99L18.8193 61.3614L18.8228 61.3525L17.8908 60.99ZM16.5041 63.0192L17.1824 63.754L17.1835 63.753L16.5041 63.0192ZM14.3735 64.2706L14.042 63.3271L14.0307 63.3311L14.0196 63.3353L14.3735 64.2706ZM8.82701 64.2706L9.1809 63.3353L9.16975 63.3311L9.1585 63.3271L8.82701 64.2706ZM6.66253 63.0192L5.96942 63.7401L5.98354 63.7536L5.99817 63.7666L6.66253 63.0192ZM5.30973 60.99L4.37769 61.3525L4.38126 61.3614L5.30973 60.99ZM6.76399 53.6849L7.42836 54.4323L7.43595 54.4256L7.4434 54.4187L6.76399 53.6849ZM8.89465 52.3998L9.23429 53.3403L9.24144 53.3377L9.24854 53.335L8.89465 52.3998ZM14.3058 52.4336L13.9301 53.3603L13.941 53.3647L13.952 53.3689L14.3058 52.4336ZM16.4365 53.7526L15.7434 54.4734L15.7502 54.4799L15.7571 54.4863L16.4365 53.7526ZM17.8569 55.7817L16.9377 56.1757L16.942 56.1854L17.8569 55.7817ZM17.3642 58.2844C17.3642 59.1696 17.2237 59.9464 16.9588 60.6276L18.8228 61.3525C19.1892 60.4103 19.3642 59.3834 19.3642 58.2844H17.3642ZM16.9623 60.6186C16.7004 61.2735 16.3219 61.8251 15.8247 62.2855L17.1835 63.753C17.9039 63.086 18.4499 62.2848 18.8192 61.3614L16.9623 60.6186ZM15.8259 62.2844C15.3502 62.7235 14.7616 63.0743 14.042 63.3271L14.705 65.214C15.6538 64.8806 16.4857 64.3972 17.1824 63.754L15.8259 62.2844ZM14.0196 63.3353C13.3129 63.6027 12.5104 63.744 11.6002 63.744V65.744C12.7193 65.744 13.7656 65.5697 14.7274 65.2058L14.0196 63.3353ZM11.6002 63.744C10.6901 63.744 9.88761 63.6027 9.1809 63.3353L8.47312 65.2058C9.43486 65.5697 10.4812 65.744 11.6002 65.744V63.744ZM9.1585 63.3271C8.43635 63.0734 7.83046 62.7194 7.3269 62.2718L5.99817 63.7666C6.71213 64.4013 7.54922 64.8815 8.49552 65.214L9.1585 63.3271ZM7.35564 62.2984C6.87643 61.8376 6.50355 61.282 6.23821 60.6186L4.38126 61.3614C4.74723 62.2763 5.27621 63.0735 5.96942 63.7401L7.35564 62.2984ZM6.24174 60.6276C5.97683 59.9464 5.83625 59.1696 5.83625 58.2844H3.83625C3.83625 59.3834 4.01133 60.4103 4.37773 61.3525L6.24174 60.6276ZM5.83625 58.2844C5.83625 57.4589 5.9831 56.7266 6.2627 56.0742L4.42441 55.2864C4.02761 56.2122 3.83625 57.2161 3.83625 58.2844H5.83625ZM6.2627 56.0742C6.54619 55.4127 6.9354 54.8705 7.42836 54.4323L6.09963 52.9375C5.37507 53.5816 4.81731 54.3696 4.42441 55.2864L6.2627 56.0742ZM7.4434 54.4187C7.94994 53.9497 8.54341 53.5898 9.23429 53.3403L8.55501 51.4592C7.62253 51.7959 6.79556 52.2928 6.08458 52.9512L7.4434 54.4187ZM9.24854 53.335C9.96023 53.0658 10.7411 52.9263 11.6002 52.9263V50.9263C10.5204 50.9263 9.49752 51.1024 8.54076 51.4645L9.24854 53.335ZM11.6002 52.9263C12.451 52.9263 13.2242 53.0741 13.9301 53.3603L14.6815 51.5068C13.719 51.1166 12.6885 50.9263 11.6002 50.9263V52.9263ZM13.952 53.3689C14.6721 53.6413 15.2637 54.0121 15.7434 54.4734L17.1296 53.0317C16.4369 52.3657 15.6081 51.8571 14.6597 51.4983L13.952 53.3689ZM15.7571 54.4863C16.2594 54.9514 16.6528 55.5108 16.9378 56.1757L18.7761 55.3878C18.3846 54.4745 17.8311 53.681 17.1159 53.0188L15.7571 54.4863ZM16.942 56.1854C17.2199 56.8153 17.3642 57.5108 17.3642 58.2844H19.3642C19.3642 57.2543 19.1703 56.2814 18.7719 55.3781L16.942 56.1854Z" fill="#E55055" mask="url(#path-4-outside-2_186_2128)"/>
</svg>
